<svg xmlns="http://www.w3.org/2000/svg" viewBox="0 0 64 64"><g data-name="Karate"><path d="M37.575 3.053c2.656-1.5 8.141-3.754 12.425 0 8 7-4 27.45 9 31.95 0 0-11.87 3.68-19.09-5.71z" style="fill:#343544"/><path d="M45 12.08v10.2h-4V20c-9.89-.28-13-6-13-6a9.668 9.668 0 0 1-5 3.35v4.93h-4V12A10.994 10.994 0 0 1 30 1h2.53a7.243 7.243 0 0 1 3.8 1.08A7.383 7.383 0 0 1 39 5a7.182 7.182 0 0 1 6 7.08z" style="fill:#494a59"/><path d="M40 21h4a2 2 0 0 1 2 2v2a2 2 0 0 1-2 2h-4.226zM24 21h-4a2 2 0 0 0-2 2v2a2 2 0 0 0 2 2h4.225z" style="fill:#eac2b9"/><path d="m53.12 44.72-11.5-5.2-3.05 4.1a16.329 16.329 0 0 1-13.14 0l-3.05-4.1-11.5 5.2A10 10 0 0 0 5 53.83v8.42a.75.75 0 0 0 .75.75h52.5a.75.75 0 0 0 .75-.75v-8.42a10 10 0 0 0-5.88-9.11z" style="fill:#e6ecff"/><path style="fill:#d0dbf7" d="m30.22 63 15.89-21.45-4.49-2.04L24.22 63h6z"/><path style="fill:#bbcaea" d="m29 56.55-11.11-15 4.49-2.04L32 52.5l-3 4.05z"/><path d="M38.57 43.62 32 52.5l-6.57-8.88a16.329 16.329 0 0 0 13.14 0z" style="fill:#494a59"/><path d="m41.62 39.52-3.05 4.1a16.329 16.329 0 0 1-13.14 0l-3.05-4.1L26 37.88v-7.17h.01a8.979 8.979 0 0 0 11.98 0H38v7.17z" style="fill:#eac2b9"/><path d="M50.75 61.61V63h-1.5v-1.39a11.172 11.172 0 0 0-1.87-6.19.718.718 0 0 1-.13-.42v-3a.75.75 0 0 1 1.5 0v2.78a12.608 12.608 0 0 1 2 6.83zM16.75 52v3a.718.718 0 0 1-.13.42 11.172 11.172 0 0 0-1.87 6.19V63h-1.5v-1.39a12.608 12.608 0 0 1 2-6.83V52a.75.75 0 0 1 1.5 0z" style="fill:#d0dbf7"/><path d="M23 16.347V25a9 9 0 0 0 9 9 9 9 0 0 0 9-9v-6c-9.894-.284-13-6-13-6a9.628 9.628 0 0 1-5 3.347z" style="fill:#ffddd4"/></g></svg>